<svg width="28" height="29" viewBox="0 0 28 29" fill="none" xmlns="http://www.w3.org/2000/svg">
<rect y="0.5" width="28" height="28" rx="10" fill="#6BBDF3"/>
<path d="M17.3828 8.43555C18.6112 8.41819 19.7948 8.44725 20.9336 8.52344L21.0205 8.5293L21.0264 8.61523C21.1086 9.71846 21.1411 10.8819 21.123 12.1045C21.105 13.3303 21.006 14.5194 20.8252 15.6709C20.6442 16.8235 20.3668 17.8945 19.9941 18.8828C19.6202 19.8744 19.1151 20.6893 18.4785 21.3262L18.4795 21.3271C17.7032 22.1169 16.8628 22.6945 15.959 23.0576C15.0594 23.4187 14.1547 23.6006 13.2451 23.6006C12.2931 23.6006 11.352 23.4138 10.4229 23.042C9.49283 22.6698 8.69132 22.1457 8.02051 21.4688C7.35174 20.7932 6.83128 20.02 6.45898 19.1504C6.08647 18.2803 5.9004 17.3799 5.90039 16.4502C5.90039 15.5152 6.08004 14.5839 6.43945 13.6572C6.8004 12.7268 7.37873 11.8648 8.17188 11.0723C8.81726 10.4255 9.6342 9.91559 10.6191 9.54004C11.5999 9.1652 12.6657 8.89104 13.8154 8.71875C14.9634 8.54674 16.1527 8.45294 17.3828 8.43555ZM19.8896 9.64648C19.0986 9.61654 18.205 9.61135 17.209 9.63184C16.1761 9.65308 15.144 9.74213 14.1123 9.89746C13.0813 10.0533 12.1135 10.29 11.21 10.6084C10.4224 10.8852 9.7776 11.2459 9.27246 11.6885L9.06445 11.8828C8.33516 12.6115 7.82806 13.3637 7.53809 14.1387C7.24532 14.9214 7.09961 15.6475 7.09961 16.3164C7.09965 17.2085 7.27814 18.0406 7.63379 18.8135C7.9654 19.5341 8.36123 20.1014 8.81641 20.5225C9.23932 19.3822 9.87229 18.2869 10.7178 17.2383C11.6018 16.1427 12.8359 15.1252 14.415 14.1836L14.5312 14.3447C13.3878 15.3383 12.4277 16.3948 11.6504 17.5137C10.8872 18.6123 10.3017 19.916 9.89355 21.4248C10.3898 21.7468 10.9259 21.9884 11.5029 22.1484C12.1058 22.3163 12.688 22.4004 13.25 22.4004C14.0119 22.4004 14.7659 22.2516 15.5127 21.9541C16.2566 21.6582 16.9602 21.1681 17.6221 20.4805L17.623 20.4795L17.8418 20.2383C18.0614 19.9742 18.2847 19.6412 18.5117 19.2383C18.8113 18.7066 19.0732 18.0074 19.2959 17.1387C19.5182 16.2713 19.6877 15.2178 19.8027 13.9785C19.9155 12.7638 19.9434 11.32 19.8896 9.64648Z" fill="white" stroke="white" stroke-width="0.2"/>
</svg>
