<svg width="36" height="36" viewBox="0 0 36 36" fill="none" xmlns="http://www.w3.org/2000/svg">
<path d="M18.0002 23.25C16.6079 23.25 15.2725 22.6969 14.2879 21.7123C13.3034 20.7277 12.7502 19.3924 12.7502 18C12.7502 16.6076 13.3034 15.2723 14.2879 14.2877C15.2725 13.3031 16.6079 12.75 18.0002 12.75C19.3926 12.75 20.728 13.3031 21.7126 14.2877C22.6971 15.2723 23.2502 16.6076 23.2502 18C23.2502 19.3924 22.6971 20.7277 21.7126 21.7123C20.728 22.6969 19.3926 23.25 18.0002 23.25ZM29.1452 19.455C29.2052 18.975 29.2502 18.495 29.2502 18C29.2502 17.505 29.2052 17.01 29.1452 16.5L32.3102 14.055C32.5952 13.83 32.6702 13.425 32.4902 13.095L29.4902 7.905C29.3102 7.575 28.9052 7.44 28.5752 7.575L24.8402 9.075C24.0602 8.49 23.2502 7.98 22.3052 7.605L21.7502 3.63C21.7198 3.45333 21.6278 3.29314 21.4905 3.17783C21.3532 3.06252 21.1795 2.99952 21.0002 3H15.0002C14.6252 3 14.3102 3.27 14.2502 3.63L13.6952 7.605C12.7502 7.98 11.9402 8.49 11.1602 9.075L7.42525 7.575C7.09525 7.44 6.69025 7.575 6.51025 7.905L3.51025 13.095C3.31525 13.425 3.40525 13.83 3.69025 14.055L6.85525 16.5C6.79525 17.01 6.75025 17.505 6.75025 18C6.75025 18.495 6.79525 18.975 6.85525 19.455L3.69025 21.945C3.40525 22.17 3.31525 22.575 3.51025 22.905L6.51025 28.095C6.69025 28.425 7.09525 28.545 7.42525 28.425L11.1602 26.91C11.9402 27.51 12.7502 28.02 13.6952 28.395L14.2502 32.37C14.3102 32.73 14.6252 33 15.0002 33H21.0002C21.3752 33 21.6902 32.73 21.7502 32.37L22.3052 28.395C23.2502 28.005 24.0602 27.51 24.8402 26.91L28.5752 28.425C28.9052 28.545 29.3102 28.425 29.4902 28.095L32.4902 22.905C32.6702 22.575 32.5952 22.17 32.3102 21.945L29.1452 19.455Z" fill="#9DB6C0"/>
</svg>
