<svg width="20" height="20" viewBox="0 0 20 20" fill="none" xmlns="http://www.w3.org/2000/svg">
<rect width="20" height="20" rx="10" fill="#FFEDE9"/>
<path d="M5.89446 14.9583C5.48924 14.9583 5.14488 14.8164 4.86138 14.5325C4.57749 14.2494 4.43555 13.9052 4.43555 13.5C4.43555 13.2698 4.4861 13.0536 4.58721 12.8513C4.68832 12.6491 4.83221 12.4764 5.01888 12.3333V10.1797C5.01888 10.0463 5.06419 9.93428 5.1548 9.84367C5.24541 9.75306 5.35721 9.70795 5.49021 9.70834H6.35413V6.97134C6.35413 6.83795 6.39924 6.72595 6.48946 6.63534C6.57969 6.54473 6.69169 6.49962 6.82546 6.5H9.28305C9.47438 6.5 9.64977 6.55017 9.80921 6.6505C9.96866 6.75084 10.0857 6.89025 10.1604 7.06875L12.45 12.4448C12.5005 12.5657 12.5425 12.6894 12.576 12.8158C12.6086 12.9421 12.625 13.073 12.625 13.2083C12.625 13.6976 12.4556 14.1115 12.1169 14.4503C11.7782 14.789 11.3642 14.9583 10.875 14.9583C10.4989 14.9583 10.16 14.852 9.85821 14.6393C9.55644 14.4265 9.34507 14.144 9.22413 13.7917H7.3178C7.2513 14.1339 7.08407 14.4139 6.81613 14.6317C6.54857 14.8494 6.24135 14.9583 5.89446 14.9583ZM15.2727 14.375H13.6796C13.5459 14.375 13.4339 14.3299 13.3436 14.2397C13.2534 14.1494 13.2083 14.0374 13.2083 13.9037V5.91667C13.2083 5.83384 13.2363 5.76462 13.2923 5.709C13.3483 5.65339 13.4177 5.62539 13.5005 5.625C13.5834 5.62462 13.6526 5.65262 13.7082 5.709C13.7638 5.76539 13.7916 5.83462 13.7916 5.91667V13.7917H15.2727C15.3552 13.7917 15.4244 13.8197 15.4804 13.8757C15.5364 13.9317 15.5642 14.0011 15.5638 14.0839C15.5634 14.1668 15.5356 14.236 15.4804 14.2916C15.4252 14.3472 15.3563 14.375 15.2727 14.375ZM5.89388 14.375C6.13421 14.375 6.34032 14.2893 6.51221 14.1178C6.68332 13.9459 6.76888 13.7399 6.76888 13.5C6.76888 13.2601 6.68332 13.0541 6.51221 12.8823C6.34032 12.7108 6.13421 12.625 5.89388 12.625C5.65355 12.625 5.44782 12.7108 5.27671 12.8823C5.1056 13.0538 5.01985 13.2597 5.01946 13.5C5.01907 13.7403 5.10482 13.9463 5.27671 14.1178C5.4486 14.2893 5.65394 14.375 5.89388 14.375ZM10.875 14.375C11.1927 14.375 11.4667 14.2601 11.6969 14.0303C11.9267 13.8 12.0416 13.5261 12.0416 13.2083C12.0416 12.8906 11.9267 12.6166 11.6969 12.3864C11.467 12.1562 11.1931 12.0413 10.875 12.0417C10.5569 12.0421 10.2829 12.157 10.053 12.3864C9.82321 12.6166 9.7083 12.8906 9.7083 13.2083C9.7083 13.5261 9.82321 13.8 10.053 14.0303C10.2829 14.2605 10.5569 14.3754 10.875 14.375ZM7.3178 13.2083H9.12846C9.11796 12.9894 9.15491 12.7774 9.2393 12.5725C9.3233 12.3683 9.4456 12.1914 9.60621 12.0417H8.39463L6.68838 10.2917H5.6028V12.0866C5.64752 12.0714 5.69419 12.0601 5.7428 12.0528C5.79141 12.0454 5.84196 12.0417 5.89446 12.0417C6.24135 12.0417 6.54857 12.1506 6.81613 12.3683C7.08369 12.5861 7.25091 12.8661 7.3178 13.2083ZM8.64371 11.4583H10.8954C10.9926 11.4583 11.0879 11.4696 11.1812 11.4922C11.2745 11.5147 11.3661 11.5484 11.456 11.5931L9.61963 7.29684C9.58968 7.22917 9.54671 7.17667 9.49071 7.13934C9.43471 7.102 9.36938 7.08334 9.29471 7.08334H6.93746V9.70834L8.64371 11.4583ZM8.39463 12.0417L8.12513 11.7646C7.94507 11.5799 7.75063 11.3782 7.5418 11.1597C7.33296 10.9411 7.13852 10.7418 6.95846 10.5618L6.68838 10.2917L8.39463 12.0417Z" fill="#ED7F63"/>
</svg>
