<svg width="20" height="20" viewBox="0 0 20 20" fill="none" xmlns="http://www.w3.org/2000/svg">
<rect width="20" height="20" rx="10" fill="#0385DC" fill-opacity="0.1"/>
<path d="M9.41699 14.3344C8.42688 14.1963 7.59602 13.7545 6.92441 13.009C6.2528 12.2631 5.91699 11.3805 5.91699 10.3613C5.91699 9.78688 6.02491 9.26441 6.24074 8.79386C6.45658 8.3233 6.74571 7.89747 7.10816 7.51636L10.0003 4.68311L12.8925 7.51636C13.1752 7.81424 13.4157 8.14636 13.6141 8.51269C13.8124 8.87902 13.9505 9.27374 14.0282 9.69686H13.442C13.3739 9.3663 13.2598 9.0548 13.0996 8.76236C12.939 8.46952 12.7323 8.20158 12.4795 7.95852L10.0003 5.50852L7.52116 7.95852C7.18088 8.27936 6.92577 8.64336 6.75583 9.05052C6.58588 9.45769 6.50071 9.89461 6.50033 10.3613C6.50033 11.2071 6.77994 11.9491 7.33916 12.5873C7.89799 13.225 8.5906 13.612 9.41699 13.7481V14.3344ZM10.8485 12.1218L10.6443 11.6563C10.8672 11.5423 11.0966 11.4509 11.3327 11.3821C11.5687 11.3133 11.8052 11.2789 12.042 11.2789C12.2508 11.2789 12.4589 11.3037 12.6662 11.3535C12.8738 11.4033 13.076 11.4671 13.2728 11.5449C13.4626 11.6226 13.6512 11.6926 13.8387 11.7549C14.0261 11.8171 14.2244 11.8482 14.4337 11.8482C14.6499 11.8482 14.8574 11.8167 15.0561 11.7537C15.2548 11.6907 15.449 11.6133 15.6388 11.5215L15.843 11.9981C15.6198 12.1117 15.3884 12.2011 15.1488 12.2664C14.9093 12.3314 14.6709 12.3639 14.4337 12.3639C14.2252 12.3639 14.0172 12.339 13.8095 12.2892C13.6018 12.2394 13.3996 12.1756 13.2028 12.0979C13.013 12.0201 12.8244 11.9501 12.637 11.8879C12.4499 11.826 12.2516 11.7951 12.042 11.7951C11.8258 11.7951 11.62 11.8266 11.4248 11.8896C11.23 11.9522 11.0379 12.0296 10.8485 12.1218ZM10.8485 13.6472L10.6443 13.1817C10.8672 13.0681 11.0966 12.9767 11.3327 12.9075C11.5687 12.8391 11.8052 12.8049 12.042 12.8049C12.2508 12.8049 12.4589 12.8297 12.6662 12.8795C12.8738 12.9293 13.076 12.9931 13.2728 13.0709C13.4626 13.1486 13.6512 13.2184 13.8387 13.2803C14.0261 13.3425 14.2244 13.3736 14.4337 13.3736C14.6499 13.3736 14.8574 13.3421 15.0561 13.2791C15.2552 13.2165 15.4494 13.1391 15.6388 13.0469L15.843 13.5241C15.6198 13.6377 15.3884 13.7269 15.1488 13.7919C14.9093 13.8568 14.6709 13.8893 14.4337 13.8893C14.2252 13.8893 14.0172 13.8644 13.8095 13.8146C13.6018 13.7648 13.3996 13.701 13.2028 13.6233C13.013 13.5455 12.8244 13.4757 12.637 13.4139C12.4499 13.3516 12.2516 13.3205 12.042 13.3205C11.8258 13.3205 11.62 13.352 11.4248 13.415C11.23 13.478 11.0379 13.5554 10.8485 13.6472ZM10.8485 15.1726L10.6443 14.7071C10.8672 14.5935 11.0966 14.5024 11.3327 14.4335C11.5687 14.3647 11.8052 14.3303 12.042 14.3303C12.2508 14.3303 12.4589 14.3552 12.6662 14.4049C12.8738 14.4547 13.076 14.5185 13.2728 14.5963C13.4626 14.674 13.6512 14.7441 13.8387 14.8063C14.0261 14.8685 14.2244 14.8994 14.4337 14.899C14.6499 14.899 14.8574 14.8677 15.0561 14.8051C15.2548 14.7425 15.449 14.6651 15.6388 14.5729L15.843 15.0495C15.6198 15.1631 15.3884 15.2525 15.1488 15.3179C14.9093 15.3828 14.6709 15.4153 14.4337 15.4153C14.2252 15.4153 14.0172 15.3904 13.8095 15.3406C13.6018 15.2908 13.3996 15.227 13.2028 15.1493C13.013 15.0715 12.8244 15.0015 12.637 14.9393C12.4499 14.877 12.2516 14.8459 12.042 14.8459C11.8258 14.8459 11.62 14.8774 11.4248 14.9404C11.23 15.0034 11.0379 15.0808 10.8485 15.1726Z" fill="#0385DC"/>
</svg>
