<svg width="20" height="20" viewBox="0 0 20 20" fill="none" xmlns="http://www.w3.org/2000/svg">
<rect width="20" height="20" rx="10" fill="#DAF8E5"/>
<path d="M9.70839 14.9583V10.3512C9.16083 10.3512 8.63777 10.2489 8.13922 10.0443C7.64066 9.83978 7.1985 9.54501 6.81272 9.16001C6.42694 8.77501 6.13489 8.3307 5.93655 7.82709C5.73822 7.32348 5.63827 6.79887 5.63672 6.25326V5.66992H6.22005C6.75555 5.66992 7.27394 5.77434 7.77522 5.98317C8.27689 6.19239 8.71886 6.48892 9.10114 6.87276C9.40991 7.18153 9.66016 7.53251 9.85189 7.92567C10.0436 8.31884 10.1706 8.73476 10.2328 9.17342C10.3187 9.00814 10.4152 8.85259 10.5221 8.70675C10.6291 8.5617 10.7502 8.42151 10.8856 8.28617C11.2698 7.90234 11.7137 7.60581 12.2173 7.39659C12.7209 7.18737 13.2457 7.08295 13.7917 7.08334H14.3751V7.66667C14.3751 8.21345 14.2704 8.73864 14.0612 9.24226C13.852 9.74587 13.5553 10.19 13.1711 10.5746C12.7868 10.9592 12.3478 11.2513 11.8539 11.4508C11.36 11.6503 10.8393 11.75 10.2917 11.75V14.9583H9.70839ZM9.72005 9.75325C9.72005 9.28659 9.63002 8.84189 9.44997 8.41917C9.26991 7.99645 9.01461 7.61962 8.68405 7.28867C8.3535 6.95773 7.97686 6.70262 7.55414 6.52334C7.13141 6.34406 6.68652 6.25403 6.21947 6.25326C6.21947 6.71992 6.30697 7.16714 6.48197 7.59492C6.65697 8.0227 6.90975 8.40187 7.2403 8.73242C7.57086 9.06298 7.95002 9.31575 8.3778 9.49075C8.80558 9.66575 9.2528 9.75325 9.71947 9.75325M10.2917 11.1667C10.7584 11.1667 11.2033 11.0792 11.6264 10.9042C12.0495 10.7292 12.4261 10.4764 12.7563 10.1458C13.0865 9.81528 13.3418 9.43612 13.5222 9.00834C13.7027 8.58056 13.7925 8.13334 13.7917 7.66667C13.3251 7.66667 12.8778 7.7567 12.4501 7.93676C12.0223 8.11681 11.6431 8.37192 11.3126 8.70209C10.982 9.03225 10.7292 9.40909 10.5542 9.83259C10.3792 10.2561 10.2917 10.7008 10.2917 11.1667Z" fill="#16BC66"/>
</svg>
