<svg width="20" height="20" viewBox="0 0 20 20" fill="none" xmlns="http://www.w3.org/2000/svg">
<rect width="20" height="20" rx="10" fill="#FFF6EA"/>
<path d="M10.0003 14.0832C10.642 14.0832 11.1913 13.8547 11.6482 13.3978C12.1052 12.9408 12.3337 12.3915 12.3337 11.7499V9.41654C12.3337 8.77487 12.1052 8.22557 11.6482 7.76862C11.1913 7.31168 10.642 7.08321 10.0003 7.08321C9.35866 7.08321 8.80935 7.31168 8.35241 7.76862C7.89546 8.22557 7.66699 8.77487 7.66699 9.41654V11.7499C7.66699 12.3915 7.89546 12.9408 8.35241 13.3978C8.80935 13.8547 9.35866 14.0832 10.0003 14.0832ZM9.01333 12.0415H10.9873V11.4582H9.01333V12.0415ZM9.01333 9.70821H10.9873V9.12487H9.01333V9.70821ZM10.0003 14.6665C9.47299 14.6665 8.98824 14.537 8.54608 14.278C8.10352 14.0194 7.74924 13.6628 7.48324 13.2082H5.91699V12.6249H7.23183C7.14277 12.341 7.09591 12.0513 7.09124 11.7557C7.08619 11.4602 7.08366 11.1665 7.08366 10.8749H5.91699V10.2915H7.08366C7.08366 9.9921 7.0823 9.69479 7.07958 9.39962C7.07685 9.10407 7.12741 8.81804 7.23124 8.54154H5.91699V7.95821H7.48324C7.62674 7.70465 7.80408 7.4789 8.01524 7.28096C8.2268 7.08262 8.46674 6.92162 8.73508 6.79796L7.68974 5.74679L8.07999 5.35596L9.31141 6.58796C9.53891 6.52301 9.76738 6.49054 9.99683 6.49054C10.2263 6.49054 10.4547 6.52301 10.6822 6.58796L11.9434 5.35654L12.3337 5.74679L11.2813 6.79854C11.5497 6.92221 11.7869 7.08243 11.993 7.27921C12.1991 7.47637 12.3741 7.7029 12.518 7.95879H14.0837V8.54212H12.7688C12.873 8.81901 12.9236 9.10504 12.9205 9.40021C12.9182 9.69537 12.917 9.99249 12.917 10.2915H14.0837V10.8749H12.917C12.917 11.1665 12.9147 11.4602 12.91 11.7557C12.9053 12.0513 12.8583 12.341 12.7688 12.6249H14.0837V13.2082H12.518C12.2516 13.6632 11.8971 14.02 11.4546 14.2786C11.012 14.5372 10.5273 14.6665 10.0003 14.6665Z" fill="#F18E0F"/>
</svg>
