<svg width="16" height="16" viewBox="0 0 16 16" fill="none" xmlns="http://www.w3.org/2000/svg">
<path d="M12.5 6.47398V6.00398C12.5 3.42465 10.484 1.33398 8.00004 1.33398C5.51604 1.33398 3.50004 3.42465 3.50004 6.00398V6.47398C3.50084 7.03502 3.34074 7.58452 3.03871 8.05732L2.30004 9.20732C1.62604 10.2573 2.14071 11.6847 3.31337 12.0167C6.37757 12.8844 9.62252 12.8844 12.6867 12.0167C13.8594 11.6847 14.374 10.2573 13.7 9.20798L12.9614 8.05798C12.6591 7.58526 12.4988 7.03575 12.4994 6.47465L12.5 6.47398Z" stroke="#2A3547"/>
<path d="M5 12.668C5.43667 13.8333 6.61467 14.668 8 14.668C9.38533 14.668 10.5633 13.8333 11 12.668" stroke="#2A3547" stroke-linecap="round"/>
</svg>
