<svg width="16" height="16" viewBox="0 0 16 16" fill="none" xmlns="http://www.w3.org/2000/svg">
<path d="M1.33301 7.99935C1.33301 5.48535 1.33301 4.22802 2.11434 3.44735C2.89567 2.66668 4.15234 2.66602 6.66634 2.66602H9.33301C11.847 2.66602 13.1043 2.66602 13.885 3.44735C14.6657 4.22868 14.6663 5.48535 14.6663 7.99935V9.33268C14.6663 11.8467 14.6663 13.104 13.885 13.8847C13.1037 14.6653 11.847 14.666 9.33301 14.666H6.66634C4.15234 14.666 2.89501 14.666 2.11434 13.8847C1.33367 13.1033 1.33301 11.8467 1.33301 9.33268V7.99935Z" stroke="#2A3547"/>
<path d="M4.66602 2.66602V1.66602M11.3327 2.66602V1.66602" stroke="#2A3547" stroke-linecap="round"/>
<path d="M11 12C11.5523 12 12 11.5523 12 11C12 10.4477 11.5523 10 11 10C10.4477 10 10 10.4477 10 11C10 11.5523 10.4477 12 11 12Z" stroke="#2A3547"/>
<path d="M1.66602 6H14.3327" stroke="#2A3547" stroke-linecap="round"/>
</svg>
