<svg width="24" height="24" viewBox="0 0 24 24" fill="none" xmlns="http://www.w3.org/2000/svg">
<path d="M3.692 9.27034C3.55067 9.27034 3.432 9.222 3.336 9.12534C3.24 9.02867 3.192 8.90967 3.192 8.76834C3.192 8.627 3.24 8.50834 3.336 8.41234C3.432 8.31634 3.55067 8.26867 3.692 8.26934H6.808C7.12733 8.26934 7.41233 8.36267 7.663 8.54934C7.91367 8.736 8.09033 8.976 8.193 9.26934L3.692 9.27034ZM5.731 18.2303C6.62833 18.2303 7.391 17.9167 8.019 17.2893C8.647 16.662 8.961 15.899 8.961 15.0003C8.961 14.1017 8.647 13.3387 8.019 12.7113C7.391 12.084 6.62833 11.77 5.731 11.7693C4.83367 11.7687 4.07067 12.0827 3.442 12.7113C2.81333 13.34 2.49933 14.103 2.5 15.0003C2.50067 15.8977 2.81467 16.6607 3.442 17.2893C4.06933 17.918 4.83233 18.232 5.731 18.2313M19.5 18.2313C20.0447 18.2313 20.5143 18.034 20.909 17.6393C21.303 17.2453 21.5 16.776 21.5 16.2313C21.5 15.6867 21.303 15.217 20.909 14.8223C20.515 14.4277 20.0453 14.2307 19.5 14.2313C18.9547 14.232 18.485 14.429 18.091 14.8223C17.697 15.2157 17.5 15.6853 17.5 16.2313C17.5 16.7773 17.697 17.2467 18.091 17.6393C18.485 18.032 18.9547 18.2293 19.5 18.2313ZM5.726 16.1153C5.41467 16.1153 5.15167 16.0067 4.937 15.7893C4.72233 15.572 4.615 15.3077 4.615 14.9963C4.615 14.685 4.724 14.4217 4.942 14.2063C5.16 13.9923 5.42433 13.8853 5.735 13.8853C6.04633 13.8853 6.30933 13.994 6.524 14.2113C6.73867 14.4293 6.846 14.6937 6.846 15.0043C6.846 15.3157 6.737 15.579 6.519 15.7943C6.30167 16.009 6.03733 16.1153 5.726 16.1153ZM19.962 13.2563C20.1647 13.301 20.337 13.3493 20.479 13.4013C20.621 13.4533 20.782 13.5417 20.962 13.6663V8.38534C20.962 7.94067 20.8037 7.56034 20.487 7.24434C20.1703 6.92834 19.7903 6.77 19.347 6.76934H14.2L13.15 5.66934L14.55 4.26934L13.85 3.56934L10.3 7.11934L11.05 7.81934L12.45 6.41934L13.5 7.46934V9.00034C13.5 9.76167 13.229 10.4137 12.687 10.9563C12.145 11.499 11.493 11.77 10.731 11.7693H8.456C8.64667 11.9373 8.801 12.0943 8.919 12.2403C9.037 12.387 9.16767 12.5637 9.311 12.7703H10.731C11.7797 12.7703 12.67 12.404 13.402 11.6713C14.134 10.9387 14.5 10.0483 14.5 9.00034V7.77034H19.346C19.526 7.77034 19.6737 7.82767 19.789 7.94234C19.9043 8.05767 19.962 8.205 19.962 8.38434V13.2563ZM16.582 15.5003C16.644 15.2937 16.707 15.1187 16.771 14.9753C16.835 14.832 16.9343 14.6737 17.069 14.5003H9.92C9.948 14.6923 9.962 14.859 9.962 15.0003C9.962 15.1417 9.948 15.3083 9.92 15.5003H16.582ZM19.5 19.2303C18.6613 19.2303 17.9517 18.9403 17.371 18.3603C16.7903 17.779 16.5 17.069 16.5 16.2303C16.5 15.3917 16.7903 14.6823 17.371 14.1023C17.9517 13.5223 18.6613 13.232 19.5 13.2313C20.3387 13.2307 21.0483 13.521 21.629 14.1023C22.2097 14.6837 22.5 15.3933 22.5 16.2313C22.5 17.0693 22.2097 17.7787 21.629 18.3593C21.0483 18.9407 20.3387 19.2313 19.5 19.2313M5.73 19.2313C4.56 19.2313 3.56267 18.8187 2.738 17.9933C1.91333 17.168 1.50067 16.1703 1.5 15.0003C1.49933 13.8303 1.912 12.8327 2.738 12.0073C3.564 11.182 4.56167 10.7693 5.731 10.7693C6.90033 10.7693 7.898 11.182 8.724 12.0073C9.55 12.8327 9.96267 13.8303 9.962 15.0003C9.96133 16.1703 9.54867 17.168 8.724 17.9933C7.89933 18.8187 6.90067 19.2313 5.73 19.2313Z" fill="white"/>
</svg>
