<svg width="24" height="24" viewBox="0 0 24 24" fill="none" xmlns="http://www.w3.org/2000/svg">
<path d="M4.616 19C4.15533 19 3.771 18.846 3.463 18.538C3.155 18.23 3.00067 17.8453 3 17.384V6.616C3 6.15533 3.15433 5.771 3.463 5.463C3.77167 5.155 4.15567 5.00067 4.615 5H19.385C19.845 5 20.229 5.15433 20.537 5.463C20.845 5.77167 20.9993 6.156 21 6.616V17.385C21 17.845 20.8457 18.2293 20.537 18.538C20.2283 18.8467 19.8443 19.0007 19.385 19H4.616ZM4.616 18H11.5V6H4.616C4.462 6 4.32067 6.064 4.192 6.192C4.06333 6.32 3.99933 6.46133 4 6.616V17.385C4 17.5383 4.064 17.6793 4.192 17.808C4.32 17.9367 4.461 18.0007 4.615 18M12.5 18H19.385C19.5383 18 19.6793 17.936 19.808 17.808C19.9367 17.68 20.0007 17.5387 20 17.384V6.616C20 6.462 19.936 6.32067 19.808 6.192C19.68 6.06333 19.539 5.99933 19.385 6H12.5V18ZM5.385 15.5H10.115V14.5H5.385V15.5ZM5.385 12.5H10.115V11.5H5.385V12.5ZM5.385 9.5H10.115V8.5H5.385V9.5ZM13.885 15.5H18.615V14.5H13.885V15.5ZM13.885 12.5H18.615V11.5H13.885V12.5ZM13.885 9.5H18.615V8.5H13.885V9.5Z" fill="white"/>
</svg>
