<svg width="24" height="24" viewBox="0 0 24 24" fill="none" xmlns="http://www.w3.org/2000/svg">
<path d="M6.99986 18H16.9999V8.96L11.9999 5.25L6.99986 8.96V18ZM5.99986 19V9.716L2.60386 12.23L2.00586 11.443L11.9999 4L22.0199 11.439L21.4159 12.231L17.9999 9.696V19H5.99986ZM11.9999 15.5C12.4219 15.5 12.7772 15.3553 13.0659 15.066C13.3552 14.7773 13.4999 14.422 13.4999 14C13.4999 13.678 13.4099 13.343 13.2299 12.995C13.0512 12.647 12.6412 12.0077 11.9999 11.077C11.3332 12.0463 10.9165 12.6923 10.7499 13.015C10.5832 13.337 10.4999 13.6653 10.4999 14C10.4999 14.422 10.6445 14.7773 10.9339 15.066C11.2225 15.3553 11.5779 15.5 11.9999 15.5Z" fill="white"/>
</svg>
