<svg width="24" height="24" viewBox="0 0 24 24" fill="none" xmlns="http://www.w3.org/2000/svg">
<path d="M8.973 19.9996H14.989C15.1557 19.9996 15.2967 19.9516 15.412 19.8556C15.5273 19.7596 15.6107 19.6409 15.662 19.4996L16.816 14.9036H7.146L8.3 19.4996C8.35133 19.6409 8.43467 19.7596 8.55 19.8556C8.66533 19.9516 8.80633 19.9996 8.973 19.9996ZM8.973 20.9996C8.58367 20.9996 8.23967 20.8836 7.941 20.6516C7.64233 20.4196 7.441 20.1169 7.337 19.7436L6.116 14.9036H17.846L16.625 19.7436C16.521 20.1036 16.3197 20.4029 16.021 20.6416C15.7223 20.8802 15.378 20.9996 14.988 20.9996H8.973ZM5.693 13.9036H18.308C18.5133 13.9036 18.68 13.8396 18.808 13.7116C18.936 13.5836 19 13.4229 19 13.2296V11.5176H5V13.2296C5 13.4216 5.06733 13.5816 5.202 13.7096C5.33667 13.8382 5.5 13.9026 5.692 13.9026M11.981 8.11458C11.981 6.75524 12.497 5.59791 13.529 4.64258C14.561 3.68725 15.763 3.14558 17.135 3.01758C16.9937 4.27424 16.493 5.36924 15.633 6.30258C14.773 7.23591 13.722 7.82591 12.48 8.07258V10.5186H20V13.2306C20 13.6906 19.833 14.0846 19.499 14.4126C19.165 14.7406 18.768 14.9039 18.308 14.9026H5.692C5.232 14.9026 4.835 14.7392 4.501 14.4126C4.167 14.0859 4 13.6916 4 13.2296V10.5176H11.48V8.07258C10.24 7.82591 9.18967 7.23924 8.329 6.31258C7.46833 5.38591 6.96767 4.28824 6.827 3.01958C8.18567 3.14758 9.38433 3.69258 10.423 4.65458C11.4617 5.61591 11.981 6.76991 11.981 8.11658" fill="white"/>
</svg>
