<svg width="24" height="24" viewBox="0 0 24 24" fill="none" xmlns="http://www.w3.org/2000/svg">
<path d="M12 19.0001C13.1 19.0001 14.0417 18.6084 14.825 17.8251C15.6083 17.0417 16 16.1001 16 15.0001V11.0001C16 9.90006 15.6083 8.9584 14.825 8.17506C14.0417 7.39173 13.1 7.00006 12 7.00006C10.9 7.00006 9.95833 7.39173 9.175 8.17506C8.39167 8.9584 8 9.90006 8 11.0001V15.0001C8 16.1001 8.39167 17.0417 9.175 17.8251C9.95833 18.6084 10.9 19.0001 12 19.0001ZM10.308 15.5001H13.692V14.5001H10.308V15.5001ZM10.308 11.5001H13.692V10.5001H10.308V11.5001ZM12 20.0001C11.096 20.0001 10.265 19.7781 9.507 19.3341C8.74833 18.8907 8.141 18.2794 7.685 17.5001H5V16.5001H7.254C7.10133 16.0134 7.021 15.5167 7.013 15.0101C7.00433 14.5034 7 14.0001 7 13.5001H5V12.5001H7C7 11.9867 6.99767 11.4771 6.993 10.9711C6.98833 10.4644 7.075 9.97406 7.253 9.50006H5V8.50006H7.685C7.931 8.0654 8.235 7.6784 8.597 7.33906C8.95967 6.99906 9.371 6.72306 9.831 6.51106L8.039 4.70906L8.708 4.03906L10.819 6.15106C11.209 6.03973 11.6007 5.98406 11.994 5.98406C12.3873 5.98406 12.779 6.03973 13.169 6.15106L15.331 4.04006L16 4.70906L14.196 6.51206C14.656 6.72406 15.0627 6.99873 15.416 7.33606C15.7693 7.67406 16.0693 8.0624 16.316 8.50106H19V9.50106H16.746C16.9247 9.97573 17.0113 10.4661 17.006 10.9721C17.002 11.4781 17 11.9874 17 12.5001H19V13.5001H17C17 14.0001 16.996 14.5034 16.988 15.0101C16.98 15.5167 16.8993 16.0134 16.746 16.5001H19V17.5001H16.316C15.8593 18.2801 15.2517 18.8917 14.493 19.3351C13.7343 19.7784 12.9033 20.0001 12 20.0001Z" fill="white"/>
</svg>
