<svg width="16" height="17" viewBox="0 0 16 17" fill="none" xmlns="http://www.w3.org/2000/svg">
<path d="M5.33301 15.168H10.6663M3.33301 13.168H12.6663M1.33301 11.168H14.6663" stroke="#9DB6C1" stroke-linecap="round" stroke-linejoin="round"/>
<path d="M8.00022 4.5C7.23038 4.49996 6.47689 4.72207 5.83016 5.13967C5.18344 5.55728 4.67096 6.15264 4.35423 6.8543C4.0375 7.55596 3.92997 8.33412 4.04456 9.09538C4.15915 9.85664 4.49097 10.5687 5.00022 11.146H11.0002C11.5095 10.5687 11.8413 9.85664 11.9559 9.09538C12.0705 8.33412 11.9629 7.55596 11.6462 6.8543C11.3295 6.15264 10.817 5.55728 10.1703 5.13967C9.52355 4.72207 8.77006 4.49996 8.00022 4.5Z" stroke="#9DB6C1"/>
<path d="M7.99935 4.5V9.16667M7.99935 9.16667L9.33268 7.83333M7.99935 9.16667L6.66602 7.83333" stroke="#9DB6C1" stroke-linecap="round" stroke-linejoin="round"/>
<path d="M7.99967 1.83398V2.50065M14.6663 8.50065H13.9997M1.99967 8.50065H1.33301M12.713 3.78732L12.4517 4.04932M3.54767 4.04865L3.28567 3.78665" stroke="#9DB6C1" stroke-linecap="round"/>
</svg>
