<svg width="16" height="17" viewBox="0 0 16 17" fill="none" xmlns="http://www.w3.org/2000/svg">
<path d="M5.33301 15.168H10.6663M3.33301 13.168H12.6663M1.33301 11.168H14.6663" stroke="#9DB6C1" stroke-linecap="round" stroke-linejoin="round"/>
<path d="M8.00022 4.5C7.23038 4.49996 6.47689 4.72207 5.83016 5.13967C5.18344 5.55728 4.67096 6.15264 4.35423 6.8543C4.0375 7.55596 3.92997 8.33412 4.04456 9.09538C4.15915 9.85664 4.49097 10.5687 5.00022 11.146H11.0002C11.5095 10.5687 11.8413 9.85664 11.9559 9.09538C12.0705 8.33412 11.9629 7.55596 11.6462 6.8543C11.3295 6.15264 10.817 5.55728 10.1703 5.13967C9.52355 4.72207 8.77006 4.49996 8.00022 4.5Z" stroke="#9DB6C1"/>
<path d="M8.0001 7.16728L8.35344 6.81395C8.25969 6.72032 8.1326 6.66772 8.0001 6.66772C7.8676 6.66772 7.74052 6.72032 7.64677 6.81395L8.0001 7.16728ZM8.9801 8.85395C9.02588 8.90308 9.08108 8.94248 9.14241 8.96981C9.20374 8.99713 9.26995 9.01183 9.33709 9.01301C9.40422 9.0142 9.47091 9.00185 9.53317 8.9767C9.59543 8.95155 9.65198 8.91412 9.69946 8.86664C9.74694 8.81916 9.78437 8.76261 9.80952 8.70035C9.83467 8.63809 9.84702 8.57141 9.84583 8.50427C9.84465 8.43713 9.82995 8.37093 9.80262 8.30959C9.7753 8.24826 9.73589 8.19306 9.68677 8.14728L8.9801 8.85395ZM6.31344 8.14728C6.26431 8.19306 6.22491 8.24826 6.19758 8.30959C6.17025 8.37093 6.15556 8.43713 6.15437 8.50427C6.15319 8.57141 6.16554 8.63809 6.19069 8.70035C6.21583 8.76261 6.25326 8.81916 6.30074 8.86664C6.34822 8.91412 6.40478 8.95155 6.46704 8.9767C6.5293 9.00185 6.59598 9.0142 6.66312 9.01301C6.73025 9.01183 6.79646 8.99713 6.85779 8.96981C6.91913 8.94248 6.97433 8.90308 7.0201 8.85395L6.31344 8.14728ZM8.5001 11.1673V7.16728H7.5001V11.1673H8.5001ZM7.64677 7.52062L8.9801 8.85395L9.68677 8.14728L8.35344 6.81395L7.64677 7.52062ZM7.64677 6.81395L6.31344 8.14728L7.0201 8.85395L8.35344 7.52062L7.64677 6.81395Z" fill="#9DB6C1"/>
<path d="M7.99967 1.83398V2.50065M14.6663 8.50065H13.9997M1.99967 8.50065H1.33301M12.713 3.78732L12.4517 4.04932M3.54767 4.04865L3.28567 3.78665" stroke="#9DB6C1" stroke-linecap="round"/>
</svg>
