<svg width="24" height="25" viewBox="0 0 24 25" fill="none" xmlns="http://www.w3.org/2000/svg">
<path d="M8.62469 7.24922C9.26643 7.24883 9.9053 7.33492 10.5241 7.50516C10.7683 7.10661 11.065 6.74272 11.4062 6.42328L10.5147 5.15109C10.4582 5.07039 10.4181 4.97935 10.3968 4.88317C10.3755 4.78698 10.3733 4.68754 10.3904 4.59052C10.4075 4.49349 10.4436 4.40079 10.4965 4.3177C10.5494 4.23461 10.6182 4.16276 10.6989 4.10625C10.7796 4.04974 10.8706 4.00968 10.9668 3.98835C11.063 3.96703 11.1625 3.96486 11.2595 3.98196C11.3565 3.99907 11.4492 4.03512 11.5323 4.08805C11.6154 4.14098 11.6872 4.20977 11.7437 4.29047L12.6353 5.56172C13.3685 5.19153 14.1784 4.99885 14.9997 4.99922H15.1628L15.4337 3.47203C15.448 3.37252 15.482 3.27688 15.534 3.1908C15.5859 3.10472 15.6546 3.02996 15.7359 2.97095C15.8173 2.91194 15.9097 2.86989 16.0077 2.84731C16.1056 2.82472 16.2071 2.82205 16.3061 2.83946C16.4051 2.85687 16.4996 2.89401 16.584 2.94866C16.6683 3.00331 16.7409 3.07437 16.7972 3.1576C16.8536 3.24084 16.8926 3.33455 16.9121 3.43318C16.9315 3.5318 16.9309 3.63333 16.9103 3.73172L16.6403 5.26359C17.4721 5.53871 18.222 6.01726 18.8219 6.65578L20.0987 5.76234C20.1794 5.70444 20.2707 5.66313 20.3674 5.6408C20.4642 5.61846 20.5644 5.61555 20.6622 5.63223C20.7601 5.64892 20.8537 5.68486 20.9375 5.73798C21.0214 5.7911 21.0939 5.86035 21.1508 5.94169C21.2077 6.02304 21.2478 6.11487 21.269 6.21186C21.2901 6.30886 21.2918 6.40908 21.2739 6.50673C21.256 6.60437 21.2189 6.69749 21.1648 6.78069C21.1106 6.86389 21.0405 6.93551 20.9584 6.9914L19.6872 7.8839C20.0587 8.61692 20.2514 9.42744 20.2497 10.2492V10.4105L21.7769 10.6805C21.9617 10.7129 22.1277 10.8134 22.2421 10.9621C22.3565 11.1109 22.4109 11.2972 22.3946 11.4841C22.3784 11.6711 22.2926 11.8452 22.1543 11.972C22.016 12.0988 21.8352 12.1692 21.6475 12.1692C21.6038 12.1693 21.5602 12.1655 21.5172 12.158L19.9872 11.888C19.8528 12.2973 19.6683 12.6884 19.4378 13.0523C20.1552 13.7187 20.6553 14.5856 20.873 15.5402C21.0908 16.4948 21.016 17.4928 20.6585 18.4043C20.3009 19.3158 19.6772 20.0985 18.8686 20.6506C18.0599 21.2026 17.1038 21.4983 16.1247 21.4992H8.62469C6.73502 21.4992 4.92274 20.7486 3.58655 19.4124C2.25035 18.0762 1.49968 16.2639 1.49968 14.3742C1.49968 12.4846 2.25035 10.6723 3.58655 9.33608C4.92274 7.99989 6.73502 7.24922 8.62469 7.24922ZM18.7497 10.2492C18.7492 9.45502 18.4967 8.68147 18.0283 8.04005C17.56 7.39862 16.9001 6.92244 16.1438 6.68013C15.3875 6.43782 14.5737 6.4419 13.8199 6.69176C13.066 6.94163 12.4109 7.42439 11.9491 8.07047C13.479 8.87559 14.6653 10.2078 15.2884 11.8205C16.2744 11.6503 17.2888 11.7867 18.1947 12.2114C18.5574 11.6212 18.7495 10.942 18.7497 10.2492ZM8.62469 19.9992H16.1247C16.5863 19.9984 17.0428 19.9028 17.466 19.7185C17.8892 19.5342 18.2701 19.2651 18.5852 18.9277C18.9002 18.5903 19.1427 18.1919 19.2977 17.7571C19.4526 17.3223 19.5167 16.8603 19.486 16.3997C19.4553 15.9391 19.3304 15.4897 19.1191 15.0793C18.9078 14.6689 18.6146 14.3062 18.2575 14.0137C17.9005 13.7211 17.4872 13.5049 17.0433 13.3784C16.5994 13.2519 16.1342 13.2178 15.6766 13.2783C15.7112 13.5005 15.7356 13.7273 15.7487 13.9561C15.7602 14.155 15.6921 14.3503 15.5596 14.4991C15.427 14.6478 15.2408 14.7378 15.0419 14.7492C14.843 14.7607 14.6477 14.6926 14.4989 14.56C14.3502 14.4275 14.2602 14.2413 14.2487 14.0423C14.2276 13.6683 14.1686 13.2973 14.0725 12.9352C14.0725 12.9202 14.0641 12.9052 14.0612 12.8902C13.7856 11.8771 13.2322 10.9614 12.4636 10.2462C11.6949 9.53111 10.7417 9.04512 9.71142 8.84315C8.68118 8.64117 7.61498 8.73126 6.63323 9.10323C5.65148 9.47519 4.79327 10.1142 4.15552 10.9482C3.51777 11.7821 3.12587 12.7778 3.02409 13.8227C2.9223 14.8676 3.11467 15.9202 3.57949 16.8615C4.04431 17.8029 4.76305 18.5955 5.65455 19.15C6.54606 19.7044 7.57483 19.9986 8.62469 19.9992Z" fill="#9FA1A2"/>
</svg>
