<svg width="16" height="17" viewBox="0 0 16 17" fill="none" xmlns="http://www.w3.org/2000/svg">
<path d="M6.00033 5.66637C6.00033 3.83304 4.28033 2.6597 4.20699 2.61304C4.09675 2.53852 3.96673 2.4987 3.83366 2.4987C3.70059 2.4987 3.57057 2.53852 3.46033 2.61304C3.38699 2.66637 1.66699 3.83304 1.66699 5.66637C1.66699 6.24101 1.89527 6.79211 2.30159 7.19843C2.70792 7.60476 3.25902 7.83304 3.83366 7.83304C4.40829 7.83304 4.95939 7.60476 5.36572 7.19843C5.77205 6.79211 6.00033 6.24101 6.00033 5.66637ZM3.83366 6.4997C3.61265 6.4997 3.40068 6.41191 3.2444 6.25563C3.08812 6.09934 3.00033 5.88738 3.00033 5.66637C3.05519 5.03429 3.35409 4.44843 3.83366 4.03304C4.31667 4.44573 4.61634 5.03309 4.66699 5.66637C4.66699 5.88738 4.57919 6.09934 4.42291 6.25563C4.26663 6.41191 4.05467 6.4997 3.83366 6.4997ZM7.87366 7.2797C7.76341 7.20519 7.63339 7.16536 7.50033 7.16536C7.36726 7.16536 7.23724 7.20519 7.12699 7.2797C7.01366 7.3597 4.33366 9.21304 4.33366 11.9997C4.33366 12.8396 4.66729 13.645 5.26115 14.2389C5.85502 14.8327 6.66047 15.1664 7.50033 15.1664C8.34018 15.1664 9.14563 14.8327 9.7395 14.2389C10.3334 13.645 10.667 12.8396 10.667 11.9997C10.667 9.16637 8.00033 7.35304 7.87366 7.2797ZM7.50033 13.833C7.25957 13.833 7.02117 13.7856 6.79874 13.6935C6.57631 13.6013 6.3742 13.4663 6.20396 13.2961C6.03372 13.1258 5.89868 12.9237 5.80655 12.7013C5.71441 12.4789 5.66699 12.2405 5.66699 11.9997C5.66699 10.4597 6.87366 9.2197 7.50699 8.66637C8.13366 9.19304 9.33366 10.4197 9.33366 11.9997C9.33366 12.2405 9.28624 12.4789 9.1941 12.7013C9.10197 12.9237 8.96693 13.1258 8.79669 13.2961C8.62645 13.4663 8.42434 13.6013 8.20191 13.6935C7.97948 13.7856 7.74108 13.833 7.50033 13.833ZM12.0403 1.94637C11.9301 1.87185 11.8001 1.83203 11.667 1.83203C11.5339 1.83203 11.4039 1.87185 11.2937 1.94637C11.2003 2.01304 9.00033 3.53304 9.00033 5.83304C9.00033 6.54028 9.28128 7.21856 9.78137 7.71865C10.2815 8.21875 10.9597 8.4997 11.667 8.4997C12.3742 8.4997 13.0525 8.21875 13.5526 7.71865C14.0527 7.21856 14.3337 6.54028 14.3337 5.83304C14.3337 3.50637 12.1337 2.00637 12.0403 1.94637ZM11.667 7.16637C11.3134 7.16637 10.9742 7.02589 10.7242 6.77585C10.4741 6.5258 10.3337 6.18666 10.3337 5.83304C10.3793 5.35165 10.5208 4.88426 10.7498 4.45836C10.9788 4.03246 11.2906 3.65665 11.667 3.35304C12.0445 3.65561 12.3571 4.03117 12.5862 4.45727C12.8153 4.88338 12.9561 5.35128 13.0003 5.83304C13.0003 6.18666 12.8598 6.5258 12.6098 6.77585C12.3598 7.02589 12.0206 7.16637 11.667 7.16637Z" fill="#9DB6C1"/>
</svg>
