<svg width="24" height="24" viewBox="0 0 24 24" fill="none" xmlns="http://www.w3.org/2000/svg">
<rect width="24" height="24" rx="8.57143" fill="white"/>
<path d="M14.8994 6.80127C15.6889 6.79011 16.4568 6.80153 17.2031 6.83545L17.9434 6.87744L18.0176 6.88232L18.0225 6.95654C18.0929 7.90212 18.1209 8.89887 18.1055 9.94678C18.09 10.9974 18.0045 12.0164 17.8496 13.0034C17.6945 13.9914 17.4571 14.9092 17.1377 15.7563C16.817 16.6068 16.3849 17.307 15.8389 17.853L15.8379 17.8521C15.1727 18.5287 14.4532 19.0243 13.6787 19.3354C12.9076 19.6449 12.1321 19.8003 11.3525 19.8003C10.5365 19.8003 9.73002 19.6405 8.93359 19.3218C8.13647 19.0028 7.44997 18.5533 6.875 17.9731C6.30175 17.3941 5.85525 16.7312 5.53613 15.9858C5.21691 15.2401 5.05664 14.4682 5.05664 13.6714C5.05668 12.87 5.21148 12.072 5.51953 11.2778C5.82894 10.4802 6.32497 9.74135 7.00488 9.06201C7.55798 8.50786 8.25758 8.07036 9.10156 7.74854C9.94208 7.4273 10.8555 7.19309 11.8408 7.04541C12.8248 6.89795 13.8449 6.81618 14.8994 6.80127ZM17.0479 7.84033C16.3698 7.81467 15.6037 7.81008 14.75 7.82764C13.8647 7.84586 12.98 7.92202 12.0957 8.05518C11.212 8.18872 10.3829 8.39164 9.6084 8.66455C8.83698 8.93562 8.22531 9.30099 7.76953 9.75732C7.14435 10.382 6.70946 11.0266 6.46094 11.6909C6.21 12.3618 6.08496 12.9838 6.08496 13.5571C6.085 14.3218 6.23813 15.0353 6.54297 15.6978C6.8271 16.3151 7.16669 16.8008 7.55664 17.1616C7.91915 16.1844 8.46192 15.2459 9.18652 14.3472C9.94426 13.4081 11.0019 12.5361 12.3555 11.729L12.4551 11.8667C11.4748 12.7185 10.6517 13.6243 9.98535 14.5835C9.33111 15.5253 8.82932 16.6426 8.47949 17.936C8.90491 18.2121 9.36472 18.419 9.85938 18.5562C10.3759 18.7 10.8749 18.7719 11.3564 18.772C12.0096 18.772 12.6567 18.6442 13.2969 18.3892C13.9344 18.1356 14.5373 17.7157 15.1045 17.1265L15.1055 17.1255C15.3535 16.8757 15.6077 16.5216 15.8672 16.061C16.1239 15.6052 16.3482 15.0059 16.5391 14.2612C16.7296 13.5178 16.8751 12.6153 16.9736 11.5532C17.0702 10.5121 17.0939 9.27465 17.0479 7.84033Z" fill="#6B9DF3" stroke="#6B9DF3" stroke-width="0.171429"/>
</svg>
