<svg width="198" height="29" viewBox="0 0 198 29" fill="none" xmlns="http://www.w3.org/2000/svg">
<rect y="0.5" width="28" height="28" rx="10" fill="#6BBDF3"/>
<path d="M17.3828 8.43555C18.6112 8.41819 19.7948 8.44725 20.9336 8.52344L21.0205 8.5293L21.0264 8.61523C21.1086 9.71846 21.1411 10.8819 21.123 12.1045C21.105 13.3303 21.006 14.5194 20.8252 15.6709C20.6442 16.8235 20.3668 17.8945 19.9941 18.8828C19.6202 19.8744 19.1151 20.6893 18.4785 21.3262L18.4795 21.3271C17.7032 22.1169 16.8628 22.6945 15.959 23.0576C15.0594 23.4187 14.1547 23.6006 13.2451 23.6006C12.2931 23.6006 11.352 23.4138 10.4229 23.042C9.49283 22.6698 8.69132 22.1457 8.02051 21.4688C7.35174 20.7932 6.83128 20.02 6.45898 19.1504C6.08647 18.2803 5.9004 17.3799 5.90039 16.4502C5.90039 15.5152 6.08004 14.5839 6.43945 13.6572C6.8004 12.7268 7.37873 11.8648 8.17188 11.0723C8.81726 10.4255 9.6342 9.91559 10.6191 9.54004C11.5999 9.1652 12.6657 8.89104 13.8154 8.71875C14.9634 8.54674 16.1527 8.45294 17.3828 8.43555ZM19.8896 9.64648C19.0986 9.61654 18.205 9.61135 17.209 9.63184C16.1761 9.65308 15.144 9.74213 14.1123 9.89746C13.0813 10.0533 12.1135 10.29 11.21 10.6084C10.4224 10.8852 9.7776 11.2459 9.27246 11.6885L9.06445 11.8828C8.33516 12.6115 7.82806 13.3637 7.53809 14.1387C7.24532 14.9214 7.09961 15.6475 7.09961 16.3164C7.09965 17.2085 7.27814 18.0406 7.63379 18.8135C7.9654 19.5341 8.36123 20.1014 8.81641 20.5225C9.23932 19.3822 9.87229 18.2869 10.7178 17.2383C11.6018 16.1427 12.8359 15.1252 14.415 14.1836L14.5312 14.3447C13.3878 15.3383 12.4277 16.3948 11.6504 17.5137C10.8872 18.6123 10.3017 19.916 9.89355 21.4248C10.3898 21.7468 10.9259 21.9884 11.5029 22.1484C12.1058 22.3163 12.688 22.4004 13.25 22.4004C14.0119 22.4004 14.7659 22.2516 15.5127 21.9541C16.2566 21.6582 16.9602 21.1681 17.6221 20.4805L17.623 20.4795L17.8418 20.2383C18.0614 19.9742 18.2847 19.6412 18.5117 19.2383C18.8113 18.7066 19.0732 18.0074 19.2959 17.1387C19.5182 16.2713 19.6877 15.2178 19.8027 13.9785C19.9155 12.7638 19.9434 11.32 19.8896 9.64648Z" fill="white" stroke="white" stroke-width="0.2"/>
<path d="M40.825 12.215C39.795 13.515 38.17 14.66 35.95 15.65L35.065 14C36.895 13.15 38.21 12.28 39.01 11.39C39.82 10.49 40.225 9.545 40.225 8.555V7.505H42.145V8.555C42.145 9.265 42.02 9.945 41.77 10.595L47.155 14.06L46.105 15.65L40.825 12.215ZM34.51 19.895V18.14H47.71V19.895H34.51ZM59.6536 11.93H61.6786V13.67H59.6536V20.87H57.7336V6.86H59.6536V11.93ZM55.4986 18.65H48.4636V7.82H55.4986V18.65ZM53.5936 9.575H50.3836V16.895H53.5936V9.575ZM65.5073 14.36H74.0273V16.055H63.6023V7.73H73.7273V9.455H65.5073V11.03H73.7273V12.71H65.5073V14.36ZM62.0573 19.895V18.14H75.2573V19.895H62.0573ZM83.3909 12.11V13.19H89.0309V14.81H75.8309V13.19H81.4709V12.11H77.5109V7.13H79.4309V10.37H87.3959V12.11H83.3909ZM84.0959 15.83C84.8259 15.83 85.4559 15.945 85.9859 16.175C86.5259 16.395 86.9359 16.7 87.2159 17.09C87.5059 17.48 87.6509 17.925 87.6509 18.425C87.6509 18.925 87.5109 19.37 87.2309 19.76C86.9509 20.16 86.5409 20.47 86.0009 20.69C85.4609 20.91 84.8259 21.02 84.0959 21.02H80.7659C80.0359 21.02 79.4009 20.91 78.8609 20.69C78.3309 20.47 77.9259 20.16 77.6459 19.76C77.3659 19.37 77.2259 18.925 77.2259 18.425C77.2259 17.925 77.3659 17.48 77.6459 17.09C77.9259 16.7 78.3309 16.395 78.8609 16.175C79.4009 15.945 80.0359 15.83 80.7659 15.83H84.0959ZM83.7509 19.37C84.4209 19.37 84.9159 19.285 85.2359 19.115C85.5659 18.945 85.7309 18.71 85.7309 18.41C85.7309 17.79 85.0709 17.48 83.7509 17.48H81.1259C79.7959 17.48 79.1309 17.79 79.1309 18.41C79.1309 18.71 79.2909 18.945 79.6109 19.115C79.9409 19.285 80.4459 19.37 81.1259 19.37H83.7509ZM99.8345 6.86H101.755V14.135H99.8345V11.3H97.7195C97.5595 12.14 97.1345 12.785 96.4445 13.235C95.7645 13.675 94.9245 13.895 93.9245 13.895C92.7945 13.895 91.8695 13.615 91.1495 13.055C90.4295 12.485 90.0695 11.665 90.0695 10.595V10.415C90.0695 9.335 90.4245 8.51 91.1345 7.94C91.8545 7.37 92.7845 7.085 93.9245 7.085C94.8945 7.085 95.7195 7.3 96.3995 7.73C97.0895 8.16 97.5245 8.785 97.7045 9.605H99.8345V6.86ZM95.8595 10.415C95.8595 9.875 95.6795 9.465 95.3195 9.185C94.9695 8.905 94.5045 8.765 93.9245 8.765C93.3445 8.765 92.8745 8.905 92.5145 9.185C92.1645 9.465 91.9895 9.875 91.9895 10.415V10.58C91.9895 11.11 92.1645 11.515 92.5145 11.795C92.8745 12.075 93.3445 12.215 93.9245 12.215C94.5045 12.215 94.9695 12.075 95.3195 11.795C95.6795 11.515 95.8595 11.11 95.8595 10.58V10.415ZM94.1495 16.13H99.8345V14.75H101.755V20.87H92.2445V14.75H94.1495V16.13ZM94.1495 17.795V19.175H99.8345V17.795H94.1495ZM113.315 12.169V11.051H115.668V8.438H116.968V15.016H115.668V12.169H113.315ZM110.286 12.793C109.697 13.6337 108.726 14.418 107.374 15.146L106.763 14.106C107.82 13.508 108.596 12.9013 109.09 12.286C109.593 11.662 109.844 10.9557 109.844 10.167H107.244V9.01H113.744V10.167H111.105C111.105 10.7303 111.014 11.259 110.832 11.753L114.212 13.885L113.562 14.951L110.286 12.793ZM114.238 15.653C114.819 15.653 115.326 15.7613 115.759 15.978C116.192 16.186 116.526 16.4807 116.76 16.862C117.003 17.2347 117.124 17.6593 117.124 18.136C117.124 18.6213 117.003 19.0503 116.76 19.423C116.526 19.8043 116.192 20.099 115.759 20.307C115.326 20.5237 114.819 20.632 114.238 20.632H111.612C111.04 20.632 110.533 20.5237 110.091 20.307C109.658 20.099 109.324 19.8043 109.09 19.423C108.856 19.0503 108.739 18.6213 108.739 18.136C108.739 17.6593 108.856 17.2347 109.09 16.862C109.324 16.4807 109.658 16.186 110.091 15.978C110.533 15.7613 111.04 15.653 111.612 15.653H114.238ZM114.043 19.462C114.624 19.462 115.066 19.3407 115.369 19.098C115.672 18.8553 115.824 18.5347 115.824 18.136C115.824 17.7373 115.672 17.4167 115.369 17.174C115.066 16.9313 114.624 16.81 114.043 16.81H111.82C111.239 16.81 110.793 16.9313 110.481 17.174C110.178 17.4167 110.026 17.7373 110.026 18.136C110.026 18.5347 110.178 18.8553 110.481 19.098C110.793 19.3407 111.239 19.462 111.82 19.462H114.043ZM124.888 15.835V18.409H129.906V19.605H118.57V18.409H123.601V15.835H119.961V9.179H121.261V11.389H127.228V9.179H128.528V15.835H124.888ZM127.228 12.559H121.261V14.665H127.228V12.559ZM139.542 20.502V8.438H140.842V20.502H139.542ZM134.953 10.713C134.953 11.7443 134.832 12.715 134.589 13.625L138.164 17.902L137.189 18.734L134.108 15.016C133.527 16.3593 132.626 17.642 131.404 18.864L130.494 17.993C131.595 16.8837 132.401 15.7527 132.912 14.6C133.432 13.4387 133.692 12.143 133.692 10.713V9.14H134.953V10.713ZM147.878 12.845C147.029 14.0063 145.612 15.0463 143.627 15.965L143.029 14.847C144.589 14.1017 145.729 13.3347 146.448 12.546C147.168 11.7487 147.527 10.895 147.527 9.985V9.062H148.827V9.985C148.827 10.6003 148.715 11.1853 148.489 11.74L153.195 14.886L152.493 15.965L147.878 12.845ZM142.444 19.592V18.409H153.78V19.592H142.444ZM163.676 15.211V8.438H164.911V15.211H163.676ZM162.324 15.211H161.128V12.104H159.711V10.986H161.128V8.555H162.324V15.211ZM160.166 14.613C159.629 14.717 159.079 14.795 158.515 14.847C157.952 14.8903 157.293 14.912 156.539 14.912H154.719V9.01H159.36V10.141H155.98V11.363H159.256V12.468H155.98V13.794H156.786C157.757 13.794 158.836 13.7073 160.023 13.534L160.166 14.613ZM164.911 20.502H156.864V15.965H164.911V20.502ZM163.611 17.109H158.151V19.345H163.611V17.109Z" fill="#21353E"/>
</svg>
