<svg width="180" height="24" viewBox="0 0 180 24" fill="none" xmlns="http://www.w3.org/2000/svg">
<rect x="14" width="24" height="24" rx="8.57143" fill="white"/>
<path d="M28.8994 6.80127C29.6889 6.79011 30.4568 6.80153 31.2031 6.83545L31.9434 6.87744L32.0176 6.88232L32.0225 6.95654C32.0929 7.90212 32.1209 8.89887 32.1055 9.94678C32.09 10.9974 32.0045 12.0164 31.8496 13.0034C31.6945 13.9914 31.4571 14.9092 31.1377 15.7563C30.817 16.6068 30.3849 17.307 29.8389 17.853L29.8379 17.8521C29.1727 18.5287 28.4532 19.0243 27.6787 19.3354C26.9076 19.6449 26.1321 19.8003 25.3525 19.8003C24.5365 19.8003 23.73 19.6405 22.9336 19.3218C22.1365 19.0028 21.45 18.5533 20.875 17.9731C20.3017 17.3941 19.8553 16.7312 19.5361 15.9858C19.2169 15.2401 19.0566 14.4682 19.0566 13.6714C19.0567 12.87 19.2115 12.072 19.5195 11.2778C19.8289 10.4802 20.325 9.74135 21.0049 9.06201C21.558 8.50786 22.2576 8.07036 23.1016 7.74854C23.9421 7.4273 24.8555 7.19309 25.8408 7.04541C26.8248 6.89795 27.8449 6.81618 28.8994 6.80127ZM31.0479 7.84033C30.3698 7.81467 29.6037 7.81008 28.75 7.82764C27.8647 7.84586 26.98 7.92202 26.0957 8.05518C25.212 8.18872 24.3829 8.39164 23.6084 8.66455C22.837 8.93562 22.2253 9.30099 21.7695 9.75732C21.1443 10.382 20.7095 11.0266 20.4609 11.6909C20.21 12.3618 20.085 12.9838 20.085 13.5571C20.085 14.3218 20.2381 15.0353 20.543 15.6978C20.8271 16.3151 21.1667 16.8008 21.5566 17.1616C21.9192 16.1844 22.4619 15.2459 23.1865 14.3472C23.9443 13.4081 25.0019 12.5361 26.3555 11.729L26.4551 11.8667C25.4748 12.7185 24.6517 13.6243 23.9854 14.5835C23.3311 15.5253 22.8293 16.6426 22.4795 17.936C22.9049 18.2121 23.3647 18.419 23.8594 18.5562C24.3759 18.7 24.8749 18.7719 25.3564 18.772C26.0096 18.772 26.6567 18.6442 27.2969 18.3892C27.9344 18.1356 28.5373 17.7157 29.1045 17.1265L29.1055 17.1255C29.3535 16.8757 29.6077 16.5216 29.8672 16.061C30.1239 15.6052 30.3482 15.0059 30.5391 14.2612C30.7296 13.5178 30.8751 12.6153 30.9736 11.5532C31.0702 10.5121 31.0939 9.27465 31.0479 7.84033Z" fill="#6B9DF3" stroke="#6B9DF3" stroke-width="0.171429"/>
<path d="M50.4145 10.593C49.4464 11.8148 47.9192 12.891 45.8327 13.8214L45.0009 12.2707C46.7209 11.4718 47.9568 10.6541 48.7086 9.81767C49.4699 8.9718 49.8506 8.08365 49.8506 7.1532V6.16635H51.6551V7.1532C51.6551 7.82049 51.5376 8.45959 51.3026 9.07049L56.3637 12.3271L55.3769 13.8214L50.4145 10.593ZM44.4793 17.8111V16.1617H56.8853V17.8111H44.4793ZM68.1106 10.3252H70.0138V11.9605H68.1106V18.7274H66.306V5.56015H68.1106V10.3252ZM64.2055 16.641H57.5936V6.46241H64.2055V16.641ZM62.4151 8.11184H59.3982V14.9915H62.4151V8.11184ZM73.6121 12.609H81.6196V14.2021H71.8217V6.37782H81.3377V7.99906H73.6121V9.47932H81.3377V11.0583H73.6121V12.609ZM70.3696 17.8111V16.1617H82.7756V17.8111H70.3696ZM90.42 10.4944V11.5094H95.7208V13.032H83.3148V11.5094H88.6155V10.4944H84.8937V5.81391H86.6982V8.85902H94.1841V10.4944H90.42ZM91.0826 13.9906C91.7687 13.9906 92.3608 14.0987 92.8589 14.3148C93.3664 14.5216 93.7518 14.8083 94.0149 15.1748C94.2875 15.5414 94.4238 15.9596 94.4238 16.4295C94.4238 16.8994 94.2922 17.3177 94.029 17.6842C93.7659 18.0602 93.3805 18.3515 92.873 18.5583C92.3655 18.765 91.7687 18.8684 91.0826 18.8684H87.9529C87.2668 18.8684 86.67 18.765 86.1625 18.5583C85.6644 18.3515 85.2837 18.0602 85.0206 17.6842C84.7574 17.3177 84.6258 16.8994 84.6258 16.4295C84.6258 15.9596 84.7574 15.5414 85.0206 15.1748C85.2837 14.8083 85.6644 14.5216 86.1625 14.3148C86.67 14.0987 87.2668 13.9906 87.9529 13.9906H91.0826ZM90.7584 17.3177C91.3881 17.3177 91.8533 17.2378 92.154 17.078C92.4642 16.9182 92.6193 16.6974 92.6193 16.4154C92.6193 15.8327 91.999 15.5414 90.7584 15.5414H88.2913C87.0413 15.5414 86.4163 15.8327 86.4163 16.4154C86.4163 16.6974 86.5666 16.9182 86.8674 17.078C87.1775 17.2378 87.6522 17.3177 88.2913 17.3177H90.7584ZM105.875 5.56015H107.679V12.3976H105.875V9.73308H103.887C103.736 10.5226 103.337 11.1288 102.688 11.5517C102.049 11.9652 101.26 12.172 100.32 12.172C99.258 12.172 98.3887 11.9088 97.712 11.3825C97.0353 10.8468 96.6969 10.0761 96.6969 9.07049V8.90132C96.6969 7.88628 97.0306 7.1109 97.6979 6.57519C98.3746 6.03947 99.2486 5.77162 100.32 5.77162C101.232 5.77162 102.007 5.97368 102.646 6.37782C103.295 6.78195 103.704 7.36936 103.873 8.14004H105.875V5.56015ZM102.139 8.90132C102.139 8.3938 101.969 8.00846 101.631 7.7453C101.302 7.48214 100.865 7.35056 100.32 7.35056C99.7749 7.35056 99.3332 7.48214 98.9949 7.7453C98.6659 8.00846 98.5014 8.3938 98.5014 8.90132V9.05639C98.5014 9.55451 98.6659 9.93515 98.9949 10.1983C99.3332 10.4615 99.7749 10.593 100.32 10.593C100.865 10.593 101.302 10.4615 101.631 10.1983C101.969 9.93515 102.139 9.55451 102.139 9.05639V8.90132ZM100.532 14.2726H105.875V12.9756H107.679V18.7274H98.7411V12.9756H100.532V14.2726ZM100.532 15.8374V17.1344H105.875V15.8374H100.532ZM118.544 10.5498V9.49906H120.756V7.04323H121.977V13.2256H120.756V10.5498H118.544ZM115.697 11.1363C115.143 11.9264 114.231 12.6635 112.96 13.3477L112.386 12.3703C113.38 11.8083 114.109 11.2381 114.573 10.6598C115.046 10.0733 115.282 9.40946 115.282 8.66823H112.838V7.58083H118.947V8.66823H116.467C116.467 9.19768 116.381 9.69455 116.21 10.1588L119.387 12.1626L118.776 13.1645L115.697 11.1363ZM119.412 13.8242C119.957 13.8242 120.434 13.9261 120.841 14.1297C121.248 14.3252 121.562 14.6021 121.782 14.9605C122.01 15.3108 122.124 15.7099 122.124 16.1579C122.124 16.614 122.01 17.0172 121.782 17.3675C121.562 17.7259 121.248 18.0028 120.841 18.1983C120.434 18.4019 119.957 18.5038 119.412 18.5038H116.943C116.406 18.5038 115.929 18.4019 115.514 18.1983C115.107 18.0028 114.793 17.7259 114.573 17.3675C114.353 17.0172 114.243 16.614 114.243 16.1579C114.243 15.7099 114.353 15.3108 114.573 14.9605C114.793 14.6021 115.107 14.3252 115.514 14.1297C115.929 13.9261 116.406 13.8242 116.943 13.8242H119.412ZM119.228 17.4041C119.774 17.4041 120.189 17.2901 120.474 17.062C120.76 16.834 120.902 16.5326 120.902 16.1579C120.902 15.7832 120.76 15.4818 120.474 15.2538C120.189 15.0257 119.774 14.9117 119.228 14.9117H117.139C116.593 14.9117 116.174 15.0257 115.881 15.2538C115.595 15.4818 115.453 15.7832 115.453 16.1579C115.453 16.5326 115.595 16.834 115.881 17.062C116.174 17.2901 116.593 17.4041 117.139 17.4041H119.228ZM129.421 13.9953V16.4145H134.137V17.5385H123.483V16.4145H128.211V13.9953H124.79V7.73966H126.012V9.81673H131.62V7.73966H132.842V13.9953H129.421ZM131.62 10.9164H126.012V12.8957H131.62V10.9164ZM143.194 18.3816V7.04323H144.416V18.3816H143.194ZM138.881 9.18139C138.881 10.1507 138.767 11.063 138.539 11.9182L141.899 15.938L140.982 16.7199L138.087 13.2256C137.541 14.4881 136.694 15.6936 135.545 16.8421L134.69 16.0235C135.724 14.9809 136.482 13.9179 136.963 12.8346C137.451 11.7431 137.696 10.5254 137.696 9.18139V7.70301H138.881V9.18139ZM151.028 11.1852C150.23 12.2766 148.898 13.2541 147.033 14.1175L146.471 13.0667C147.937 12.3662 149.008 11.6454 149.684 10.9041C150.361 10.1548 150.699 9.35244 150.699 8.49718V7.6297H151.92V8.49718C151.92 9.0755 151.815 9.62531 151.603 10.1466L156.026 13.1034L155.366 14.1175L151.028 11.1852ZM145.921 17.5263V16.4145H156.575V17.5263H145.921ZM165.876 13.4088V7.04323H167.037V13.4088H165.876ZM164.606 13.4088H163.482V10.4887H162.15V9.43797H163.482V7.1532H164.606V13.4088ZM162.577 12.8468C162.072 12.9445 161.555 13.0179 161.026 13.0667C160.496 13.1075 159.877 13.1278 159.169 13.1278H157.458V7.58083H161.82V8.6438H158.643V9.79229H161.722V10.8308H158.643V12.0771H159.401C160.313 12.0771 161.327 11.9956 162.443 11.8327L162.577 12.8468ZM167.037 18.3816H159.474V14.1175H167.037V18.3816ZM165.815 15.1927H160.684V17.2942H165.815V15.1927Z" fill="white"/>
</svg>
